HIERARCHY
ROOT Hips
{
	OFFSET 0.00000 0.00000 0.00000
	CHANNELS 6 Xposition Yposition Zposition Zrotation Yrotation Xrotation 
	JOINT LHipJoint
	{
		OFFSET 0 0 0
		CHANNELS 3 Zrotation Yrotation Xrotation
		JOINT LeftUpLeg
		{
			OFFSET 1.28858 -1.83292 1.03970
			CHANNELS 3 Zrotation Yrotation Xrotation
			JOINT LeftLeg
			{
				OFFSET 2.47846 -6.80952 0.00000
				CHANNELS 3 Zrotation Yrotation Xrotation
				JOINT LeftFoot
				{
					OFFSET 2.75274 -7.56311 0.00000
					CHANNELS 3 Zrotation Yrotation Xrotation
					JOINT LeftToeBase
					{
						OFFSET 0.12848 -0.35301 1.68223
						CHANNELS 3 Zrotation Yrotation Xrotation
						End Site
						{
							OFFSET 0.00000 -0.00000 0.87311
						}
					}
				}
			}
		}
	}
	JOINT RHipJoint
	{
		OFFSET 0 0 0
		CHANNELS 3 Zrotation Yrotation Xrotation
		JOINT RightUpLeg
		{
			OFFSET -1.31183 -1.83292 1.03970
			CHANNELS 3 Zrotation Yrotation Xrotation
			JOINT RightLeg
			{
				OFFSET -2.44740 -6.72417 0.00000
				CHANNELS 3 Zrotation Yrotation Xrotation
				JOINT RightFoot
				{
					OFFSET -2.67343 -7.34519 0.00000
					CHANNELS 3 Zrotation Yrotation Xrotation
					JOINT RightToeBase
					{
						OFFSET -0.16914 -0.46471 1.77626
						CHANNELS 3 Zrotation Yrotation Xrotation
						End Site
						{
							OFFSET -0.00000 -0.00000 0.92777
						}
					}
				}
			}
		}
	}
	JOINT LowerBack
	{
		OFFSET 0 0 0
		CHANNELS 3 Zrotation Yrotation Xrotation
		JOINT Spine
		{
			OFFSET 0.01249 2.14252 0.03842
			CHANNELS 3 Zrotation Yrotation Xrotation
			JOINT Spine1
			{
				OFFSET -0.02957 2.14199 -0.03751
				CHANNELS 3 Zrotation Yrotation Xrotation
				JOINT Neck
				{
					OFFSET 0 0 0
					CHANNELS 3 Zrotation Yrotation Xrotation
					JOINT Neck1
					{
						OFFSET -0.01678 1.65709 -0.05476
						CHANNELS 3 Zrotation Yrotation Xrotation
						JOINT Head
						{
							OFFSET 0.07912 1.58331 -0.11843
							CHANNELS 3 Zrotation Yrotation Xrotation
							End Site
							{
								OFFSET 0.03298 1.73940 -0.04271
							}
						}
					}
				}
				JOINT LeftShoulder
				{
					OFFSET 0 0 0
					CHANNELS 3 Zrotation Yrotation Xrotation
					JOINT LeftArm
					{
						OFFSET 3.39556 1.16496 0.08673
						CHANNELS 3 Zrotation Yrotation Xrotation
						JOINT LeftForeArm
						{
							OFFSET 5.23910 -0.00000 -0.00000
							CHANNELS 3 Zrotation Yrotation Xrotation
							JOINT LeftHand
							{
								OFFSET 3.31467 -0.00000 0.00000
								CHANNELS 3 Zrotation Yrotation Xrotation
								JOINT LeftFingerBase
								{
									OFFSET 0 0 0
									CHANNELS 3 Zrotation Yrotation Xrotation
									JOINT LeftHandIndex1
									{
										OFFSET 0.96590 -0.00000 0.00000
										CHANNELS 3 Zrotation Yrotation Xrotation
										End Site
										{
											OFFSET 0.77873 -0.00000 0.00000
										}
									}
								}
								JOINT LThumb
								{
									OFFSET 0 0 0
									CHANNELS 3 Zrotation Yrotation Xrotation
									End Site
									{
										OFFSET 0.79062 -0.00000 0.79062
									}
								}
							}
						}
					}
				}
				JOINT RightShoulder
				{
					OFFSET 0 0 0
					CHANNELS 3 Zrotation Yrotation Xrotation
					JOINT RightArm
					{
						OFFSET -3.27193 1.31331 0.33940
						CHANNELS 3 Zrotation Yrotation Xrotation
						JOINT RightForeArm
						{
							OFFSET -5.30252 -0.00000 0.00000
							CHANNELS 3 Zrotation Yrotation Xrotation
							JOINT RightHand
							{
								OFFSET -3.67875 -0.00000 0.00000
								CHANNELS 3 Zrotation Yrotation Xrotation
								JOINT RightFingerBase
								{
									OFFSET 0 0 0
									CHANNELS 3 Zrotation Yrotation Xrotation
									JOINT RightHandIndex1
									{
										OFFSET -0.59481 -0.00000 0.00000
										CHANNELS 3 Zrotation Yrotation Xrotation
										End Site
										{
											OFFSET -0.47955 -0.00000 0.00000
										}
									}
								}
								JOINT RThumb
								{
									OFFSET 0 0 0
									CHANNELS 3 Zrotation Yrotation Xrotation
									End Site
									{
										OFFSET -0.48687 -0.00000 0.48687
									}
								}
							}
						}
					}
				}
			}
		}
	}
}
MOTION
Frames: 14
Frame Time: 0.00749064
0.00 0.00 0.00 2.7342 -0.6546 29.6056 0.0000 0.0000 0.0000 -4.7890 24.0186 -119.3636 12.5630 18.6186 67.7624 40.1830 16.6427 -158.2120 2.7440 10.2686 29.8509 0.0000 0.0000 0.0000 0.2457 -25.8861 -116.9528 -11.6156 -18.2234 64.7649 -40.1597 -16.9581 169.7170 -0.5205 4.6237 -12.8382 4.5544 -1.4204 28.8194 -4.6478 -0.8569 15.5250 -7.5533 0.1451 1.5931 4.3581 -2.8869 15.6258 6.7523 -3.3486 11.2033 1.5369 -1.4959 1.0452 -0.0000 -0.0000 0.0000 36.0202 -27.5927 -110.2830 136.5698 -49.9758 -98.9704 -0.0000 0.0000 -75.4201 38.9035 -14.9456 -11.7570 -7.1250 0.0000 -0.0000 7.4890 11.1719 -5.9484 -0.0000 -0.0000 0.0000 -28.3059 14.6453 -106.6771 -108.4255 58.6775 -75.8861 0.0000 -0.0000 -60.7754 4.5163 -34.1796 -2.5408 7.1250 -0.0000 -0.0000 41.9181 -58.9513 -16.0336
0.00 0.00 0.00 1.9045 1.0567 23.0707 0.0000 0.0000 0.0000 -8.6331 18.6485 -124.0134 12.0527 18.4128 66.1557 40.2392 14.7733 -161.8473 6.0217 14.4494 45.0688 0.0000 0.0000 0.0000 1.6949 -21.9894 -119.4802 -11.2698 -18.0646 63.6548 -39.9559 -14.4598 169.3466 -0.0080 -0.5761 1.5831 2.7892 -1.6922 29.3171 -3.5298 -1.5071 16.3660 -5.0983 -0.3178 2.2558 1.1724 -1.9053 12.5323 5.1471 -3.0697 21.5709 1.4215 -1.1919 4.5930 -0.0000 -0.0000 0.0000 42.0496 -34.4521 -87.5905 146.8050 -43.4794 -106.4440 -0.0000 0.0000 -42.6546 44.8417 -18.3333 -17.3703 -7.1250 0.0000 -0.0000 10.5295 5.2864 -9.6832 -0.0000 -0.0000 0.0000 -30.2293 35.2338 -108.1579 -125.2311 54.7467 -89.9728 0.0000 -0.0000 -63.0824 -2.1379 -35.0933 1.2295 7.1250 -0.0000 -0.0000 36.5652 -61.2397 -15.6239
0.00 0.00 0.00 3.1533 6.6326 18.7759 0.0000 0.0000 0.0000 -1.4286 13.5416 -129.7637 8.3965 16.4033 53.9788 40.5567 13.5966 -170.9858 3.7017 11.7525 34.8618 0.0000 0.0000 0.0000 -2.4092 -27.4807 -125.2444 -6.9087 -15.2545 48.5281 -38.7763 -7.6324 160.2283 -0.3054 3.5530 -9.8223 3.8397 -2.9288 26.8405 -2.1046 -2.7685 16.6680 -3.8413 -0.8889 3.6065 1.4810 -2.7139 11.1621 2.5896 -3.7528 21.6554 0.5438 -1.5571 4.7950 0.0000 -0.0000 0.0000 46.1042 -49.9071 -69.4151 134.1092 -51.1975 -97.0691 -0.0000 0.0000 -40.2791 46.8504 -21.9438 -21.7347 -7.1250 0.0000 -0.0000 10.8653 -0.0440 -11.0746 0.0000 -0.0000 0.0000 -22.1856 52.5059 -89.5344 -129.8348 53.0619 -93.6939 0.0000 -0.0000 -46.0099 -3.4694 -31.6274 1.8209 7.1250 -0.0000 -0.0000 31.7765 -58.7051 -11.3713
0.00 0.00 0.00 3.0616 6.4594 15.9571 0.0000 0.0000 0.0000 0.4117 16.0603 -132.4158 7.0027 15.3342 48.8846 40.5042 13.0718 -170.9425 3.3526 11.2450 33.1108 0.0000 0.0000 0.0000 -4.2516 -27.3777 -127.6127 -5.3089 -13.7234 42.1405 -38.5419 -5.4339 158.2998 -0.6694 5.2323 -14.5722 2.0572 -1.2607 26.9314 -0.9776 -1.0311 16.9251 -1.9980 -0.2212 4.0530 3.0109 -3.9406 12.0100 1.0609 -4.9115 19.5006 -0.1515 -2.0910 4.4067 0.0000 -0.0000 0.0000 48.6866 -61.5947 -67.9435 120.0307 -56.3018 -85.6844 -0.0000 0.0000 -39.5198 46.8479 -23.0552 -22.6717 -7.1250 0.0000 -0.0000 10.5864 -1.4360 -11.0367 0.0000 -0.0000 0.0000 -9.8104 59.1841 -71.7175 -128.6946 53.5086 -92.7798 0.0000 -0.0000 -36.3366 -5.1566 -30.0357 2.5863 7.1250 -0.0000 -0.0000 28.7520 -57.7093 -9.4622
0.00 0.00 0.00 2.3980 5.8602 12.7483 0.0000 0.0000 0.0000 2.1779 19.8262 -134.5308 5.8746 14.3057 44.4762 40.4259 12.6763 -169.5582 3.0979 10.8518 31.7818 0.0000 0.0000 0.0000 -5.7330 -27.1272 -129.2410 -4.0575 -12.2365 36.5739 -38.4592 -5.1037 157.6355 -0.7928 5.6836 -15.8691 0.6094 0.5615 27.2496 0.3907 0.9624 17.7610 -0.1209 0.5745 4.9506 4.0505 -5.1145 13.3439 -0.1718 -6.0548 16.7759 -0.6421 -2.6539 3.0927 -0.0000 0.0000 0.0000 53.1149 -73.1414 -71.8917 100.9989 -59.5379 -69.5106 -0.0000 0.0000 -34.6845 46.9950 -25.2756 -24.5979 -7.1250 0.0000 -0.0000 10.0968 -4.2376 -10.9820 -0.0000 0.0000 0.0000 7.7297 63.5737 -50.0978 -123.8346 55.1984 -88.8292 0.0000 -0.0000 -28.8903 -8.4137 -29.0986 4.1143 7.1250 -0.0000 -0.0000 24.7876 -57.5724 -7.9557
0.00 0.00 0.00 1.9560 4.6768 9.4593 0.0000 0.0000 0.0000 3.2803 24.3816 -135.8129 5.0629 13.4543 41.0939 40.2741 12.0338 -167.3564 3.1597 10.9491 32.1085 0.0000 0.0000 0.0000 -7.3913 -26.3215 -130.2578 -3.1196 -10.8861 31.8968 -38.4624 -5.7281 157.7200 -0.5877 4.9085 -13.6478 -1.0509 2.6389 27.6569 1.8485 3.2189 19.3064 1.9647 1.4355 6.5066 5.3824 -6.3460 14.6645 -2.4289 -7.1876 13.6941 -1.4401 -3.2062 1.6706 0.0000 -0.0000 0.0000 68.9475 -83.1174 -89.5003 80.6585 -59.6677 -51.9190 -0.0000 0.0000 -26.7886 47.5602 -26.5831 -26.0765 -7.1250 0.0000 -0.0000 10.0590 -6.0792 -11.2341 0.0000 -0.0000 0.0000 26.6442 65.2717 -29.1967 -112.1577 58.0611 -79.0642 0.0000 -0.0000 -20.6642 -10.8428 -28.8646 5.2827 7.1250 -0.0000 -0.0000 22.1660 -57.8777 -7.2196
0.00 0.00 0.00 1.9706 4.3041 8.5301 0.0000 0.0000 0.0000 3.4497 25.7904 -136.1589 4.8604 13.2248 40.2160 40.2051 11.7499 -166.5350 3.2547 11.0964 32.6058 0.0000 0.0000 0.0000 -7.9766 -26.0667 -130.5899 -2.8698 -10.4812 30.5494 -38.4679 -5.8987 157.7752 -0.5305 4.6672 -12.9619 -1.5423 3.2407 27.6750 2.2256 3.8730 19.9448 2.5487 1.6724 7.2168 5.7675 -6.6730 14.9507 -3.1646 -7.4981 12.7577 -1.6961 -3.3532 1.2592 0.0000 -0.0000 0.0000 85.9496 -85.6149 -107.2732 74.3173 -59.0500 -46.4617 -0.0000 0.0000 -24.4460 47.4385 -26.3084 -25.7633 -7.1250 0.0000 -0.0000 10.0668 -5.6915 -11.1820 0.0000 -0.0000 0.0000 32.6933 65.6162 -23.2306 -106.1995 58.9848 -73.9813 0.0000 -0.0000 -17.9239 -11.5656 -28.8174 5.6336 7.1250 -0.0000 -0.0000 21.3956 -57.9900 -7.0114
0.00 0.00 0.00 2.0337 4.0248 7.7014 0.0000 0.0000 0.0000 3.6017 27.0330 -136.4598 4.6884 13.0241 39.4588 40.1320 11.4775 -165.6998 3.3414 11.2282 33.0533 0.0000 0.0000 0.0000 -8.5759 -25.8970 -130.8734 -2.6490 -10.1039 29.3138 -38.4721 -6.1100 157.8218 -0.4651 4.3744 -12.1324 -1.9090 3.7085 27.6571 2.4962 4.3892 20.6108 2.9861 1.8541 7.9987 6.0801 -6.9290 15.2494 -3.8246 -7.7420 11.8208 -1.9203 -3.4680 0.8507 0.0000 -0.0000 0.0000 122.2765 -87.0386 -144.3397 68.2482 -58.1345 -41.2803 -0.0000 0.0000 -22.9015 47.0437 -25.9156 -25.1450 -7.1250 0.0000 -0.0000 9.9540 -5.0372 -10.9499 0.0000 -0.0000 0.0000 38.5689 66.0069 -17.8131 -98.9836 59.6928 -67.7720 0.0000 -0.0000 -15.3550 -12.3320 -28.8191 6.0159 7.1250 -0.0000 -0.0000 20.6114 -58.1576 -6.8235
0.00 0.00 0.00 2.0781 3.8229 6.3705 0.0000 0.0000 0.0000 4.1021 28.8765 -136.8937 4.4358 12.7187 38.3246 40.0147 11.2145 -164.2512 3.3136 11.1862 32.9104 0.0000 0.0000 0.0000 -9.5647 -25.6137 -131.3416 -2.2846 -9.4353 27.1668 -38.4467 -6.2144 157.6385 -0.4207 4.1628 -11.5352 -2.1319 4.1580 27.6837 2.7943 4.9026 22.2246 3.2487 2.0490 9.2399 6.5129 -7.2296 16.1173 -5.0956 -8.0043 9.8929 -2.3345 -3.5826 -0.0208 -0.0000 -0.0000 0.0000 -170.8138 -85.4881 147.4733 56.6028 -55.3346 -31.5303 -0.0000 0.0000 -22.6383 45.5727 -25.7077 -23.8713 -7.1250 0.0000 -0.0000 9.1879 -4.1453 -9.9530 -0.0000 -0.0000 0.0000 50.0001 67.1324 -8.2151 -80.9598 59.6889 -52.1791 0.0000 -0.0000 -10.6774 -14.1775 -29.2566 7.0382 7.1250 -0.0000 -0.0000 19.0055 -58.9764 -6.6420
0.00 0.00 0.00 2.4657 4.8681 5.7626 0.0000 0.0000 0.0000 5.8488 29.7426 -136.6924 4.3657 12.6318 38.0054 40.0063 12.0788 -162.8995 2.7751 10.3217 30.0248 0.0000 0.0000 0.0000 -11.5042 -23.7600 -131.6403 -1.7767 -8.3846 23.8883 -38.0783 -5.0964 154.9061 -0.4404 4.2583 -11.8045 -1.8848 3.8609 27.9079 2.2393 4.6682 24.6730 2.7152 1.9647 12.1687 6.7566 -7.5787 20.5063 -9.4312 -8.2197 6.5129 -3.3592 -3.4717 -1.9003 -0.0000 0.0000 0.0000 -140.3714 -79.1458 116.0411 28.2572 -39.3519 -10.2863 -0.0000 0.0000 -14.0615 48.3138 -29.5242 -28.9586 -7.1250 0.0000 -0.0000 9.6311 -9.9334 -11.2949 -0.0000 0.0000 0.0000 75.9807 64.7594 11.6188 -49.7981 52.9138 -26.0130 0.0000 0.0000 19.3889 -5.0314 -40.1339 3.2480 7.1250 -0.0000 -0.0000 40.2696 -65.9156 -21.8480
0.00 0.00 0.00 4.6715 11.9144 14.5705 0.0000 0.0000 0.0000 4.6289 17.0869 -131.6341 7.0395 15.3650 49.0234 40.3025 13.2232 -165.5584 2.7661 10.3064 29.9749 0.0000 0.0000 0.0000 -5.3411 -25.9667 -128.5611 -3.2451 -11.0816 32.5555 -37.1887 -3.7905 149.1508 -0.2169 2.9982 -8.2738 -0.4994 -0.2669 28.6539 -1.3297 0.0633 23.1314 -1.1340 0.2881 10.2828 3.1993 -5.8406 20.7201 -12.1863 -7.5343 0.1683 -3.6241 -2.9242 -3.8622 -0.0000 -0.0000 0.0000 -173.1960 -83.6712 157.7034 16.5663 -26.2825 -3.8933 -0.0000 0.0000 -15.0922 38.8746 -26.3542 -19.6910 -7.1250 0.0000 -0.0000 5.2248 -2.3707 -5.4589 -0.0000 -0.0000 0.0000 57.8551 70.2759 11.0759 -34.3146 44.3165 -14.3324 0.0000 -0.0000 -3.6228 -11.8008 -44.9457 8.3958 7.1250 -0.0000 -0.0000 42.4421 -71.5307 -28.2961
0.00 0.00 0.00 4.4663 12.5921 15.4312 0.0000 0.0000 0.0000 3.8787 15.3721 -127.2762 8.3509 16.3714 53.8171 40.3167 13.5334 -165.2116 3.1452 10.9265 32.0326 0.0000 0.0000 0.0000 -3.1910 -26.3378 -124.7725 -4.2186 -12.4457 37.3276 -37.3622 -4.9065 150.3536 -0.1741 2.6880 -7.4112 0.1045 -0.0604 29.8122 -1.0887 0.4278 22.5945 -1.2674 0.5266 9.1791 3.3505 -5.5951 19.7094 -12.3659 -7.7443 -4.0530 -3.6666 -2.9319 -5.0532 -0.0000 -0.0000 0.0000 157.5823 -82.9729 -167.9093 13.1941 -21.5709 -2.5242 -0.0000 0.0000 -18.3635 20.5330 -20.3049 -7.4053 -7.1250 0.0000 -0.0000 -5.0748 8.4892 4.2873 -0.0000 -0.0000 0.0000 34.9500 73.2378 -6.8780 -23.3522 34.4717 -7.3367 0.0000 -0.0000 -19.6156 -11.9246 -44.7956 8.4632 7.1250 -0.0000 -0.0000 41.9799 -71.4710 -27.9045
0.00 0.00 0.00 4.1770 12.1921 15.3858 0.0000 0.0000 0.0000 3.0879 15.5468 -123.8562 9.2815 16.9855 57.0586 40.3216 13.8191 -164.7487 3.6155 11.6304 34.4367 0.0000 0.0000 0.0000 -2.2659 -26.0261 -121.8836 -4.9317 -13.3065 40.5268 -37.6864 -5.8112 152.4428 -0.1616 2.5899 -7.1390 -0.3256 0.2984 30.6786 -0.9980 0.7561 22.2967 -1.0146 0.6221 8.4918 2.7873 -5.0225 19.0256 -12.1836 -7.4905 -7.0537 -3.5479 -2.7411 -5.8392 0.0000 0.0000 0.0000 133.4609 -83.5251 -137.4452 12.1120 -19.9724 -2.1404 -0.0000 0.0000 -20.5116 7.9896 -15.8227 -2.1916 -7.1250 0.0000 -0.0000 -13.1828 14.2986 9.7859 0.0000 0.0000 0.0000 17.3152 75.3861 -22.2002 -16.4015 26.0620 -3.8206 0.0000 -0.0000 -24.4827 -11.2660 -42.9654 7.7316 7.1250 -0.0000 -0.0000 38.8217 -69.9468 -24.3691
0.00 0.00 0.00 3.4650 11.1573 14.4473 0.0000 0.0000 0.0000 1.9339 16.7536 -118.1947 10.7517 17.8114 61.9726 40.3303 14.2866 -164.0084 4.2057 12.4293 37.2680 0.0000 0.0000 0.0000 -1.3036 -25.4253 -117.0613 -6.0937 -14.5185 45.3565 -38.3577 -6.7240 157.0160 -0.1477 2.4762 -6.8237 -1.0950 0.9913 32.1076 -0.9417 1.3721 21.8322 -0.7024 0.8224 7.4090 1.9975 -4.1723 18.4841 -10.9117 -6.9490 -11.9221 -3.0879 -2.4150 -7.1815 -0.0000 -0.0000 0.0000 90.5352 -83.1970 -84.1260 12.0290 -19.8481 -2.1121 -0.0000 0.0000 -15.9739 -4.2619 -13.4682 0.9944 -7.1250 0.0000 -0.0000 -21.3858 16.9680 15.3278 -0.0000 -0.0000 0.0000 -1.5976 76.6760 -46.7622 -10.3840 17.3380 -1.5875 0.0000 -0.0000 -11.3688 -3.1419 -37.5091 1.9142 7.1250 -0.0000 -0.0000 38.4660 -63.3950 -18.5264
